<svg width="226" height="226" fill="none" xmlns="http://www.w3.org/2000/svg"><path d="M186.6 113.4a74 74 0 11-148 0 74 74 0 01148 0z" fill="#F0F1F2"/><path d="M112.6 187.4c8.4 0 16.5-1.4 24-4v-94h-94a74 74 0 0070 98z" fill="#fff"/><path d="M64.6 113.4v-10H38.9c-.2 3.3-.3 6.6-.3 10h26z" fill="#E8E9EB"/><path d="M86.6 182.7v-55.4c0-1-.8-1.9-2-1.9h-45a74.2 74.2 0 0047 57.3z" fill="#E9AF58"/><path d="M74.6 176.9v-39.6c0-1-.8-1.9-2-1.9H42a74.5 74.5 0 0032.7 41.5z" fill="#D9942D"/><path d="M126.6 169.4h-30a2 2 0 01-2-2c0-1.1.9-2 2-2h30a2 2 0 012 2 2 2 0 01-2 2zm-7.6 10H96.6a2 2 0 01-2-2c0-1.1.9-2 2-2H119a2 2 0 012 2 2 2 0 01-2 2z" fill="#E8E9EB"/><g filter="url(#filter0_d)"><path d="M182.6 155.4h-122a4 4 0 01-4-4v-108a4 4 0 014-4h122a4 4 0 014 4v108a4 4 0 01-4 4z" fill="#fff"/></g><path d="M182.6 39.4h-122a4 4 0 00-4 4v60h130v-60a4 4 0 00-4-4z" fill="#EC856F"/><path d="M186.6 89.4h-130v14h130v-14zm-25-10h-32a5 5 0 01-5-5 5 5 0 015-5h32a5 5 0 015 5 5 5 0 01-5 5z" fill="#DE6A5A"/><path d="M174.6 135.4h-18a2 2 0 01-2-2v-18c0-1.1.9-2 2-2h18a2 2 0 012 2v18a2 2 0 01-2 2zm-30 0h-18a2 2 0 01-2-2v-18c0-1.1.9-2 2-2h18a2 2 0 012 2v18a2 2 0 01-2 2zm-30 0h-18a2 2 0 01-2-2v-18c0-1.1.9-2 2-2h18a2 2 0 012 2v18a2 2 0 01-2 2zm-30 0h-18a2 2 0 01-2-2v-18c0-1.1.9-2 2-2h18a2 2 0 012 2v18a2 2 0 01-2 2zm2 20h-22v-10c0-1.1.9-2 2-2h18a2 2 0 012 2v10zm30 0h-22v-10c0-1.1.9-2 2-2h18a2 2 0 012 2v10zm30 0h-22v-10c0-1.1.9-2 2-2h18a2 2 0 012 2v10zm30 0v-10.2c0-1-.8-1.8-1.9-1.8h-18.3c-1 0-1.8.8-1.8 1.8v10.2h22z" fill="#E8E9EB"/><path d="M70.6 103.4v-25c0-3.2 1.3-6.2 3.5-8.5l1-1c2.3-2.3 3.5-5.3 3.5-8.5v-8c0-.6.4-1 1-1h8c.5 0 1 .4 1 1v8c0 3.2 1.3 6.2 3.5 8.5l1 1c2.3 2.3 3.5 5.3 3.5 8.5v25h-26z" fill="#E9AF58"/><path d="M94.8 89.4H70.6v14h24.2v-14z" fill="#D9942D"/><path d="M110.7 102.6c0 .4-.5.8-1 .8H89.5a1 1 0 01-1-.8l-3.7-22a1 1 0 011-1.2h27.6c.6 0 1 .6 1 1.2l-3.7 22zm51.9-39.2h-34a3 3 0 01-3-3 3 3 0 013-3h34a3 3 0 013 3 3 3 0 01-3 3z" fill="#fff"/><path d="M86.3 89.4l2.3 14h22l2.3-14H86.3z" fill="#E9AF58"/><defs><filter id="filter0_d" x="46.6" y="31.4" width="150" height="136" filterUnits="userSpaceOnUse" color-interpolation-filters="sRGB"><feFlood flood-opacity="0" result="BackgroundImageFix"/><feColorMatrix in="SourceAlpha" values="0 0 0 0 0 0 0 0 0 0 0 0 0 0 0 0 0 0 127 0"/><feOffset dy="2"/><feGaussianBlur stdDeviation="5"/><feColorMatrix values="0 0 0 0 0 0 0 0 0 0 0 0 0 0 0 0 0 0 0.3 0"/><feBlend in2="BackgroundImageFix" result="effect1_dropShadow"/><feBlend in="SourceGraphic" in2="effect1_dropShadow" result="shape"/></filter></defs></svg>