<svg xmlns="http://www.w3.org/2000/svg" width="226" height="226" fill="none"><path d="M112 187a74 74 0 100-148 74 74 0 000 148z" fill="#F0F1F2"/><mask id="a" maskUnits="userSpaceOnUse" x="27" y="39" width="160" height="148"><path d="M187 113a74 74 0 01-74 74H27.6V39h85.6a74 74 0 0173.9 74z" fill="#fff"/></mask><g mask="url(#a)"><g filter="url(#filter0_d)"><path d="M39 61a4 4 0 014-4h143a4 4 0 014 4v104a4 4 0 01-4 4H43a4 4 0 01-4-4V61z" fill="#fff"/></g><path d="M49 113a30 30 0 0130-30h108v60H79a30 30 0 01-30-30z" fill="#F0F1F2"/></g><path fill-rule="evenodd" clip-rule="evenodd" d="M59 113a21 21 0 1142 0 21 21 0 01-42 0zm5.6-7.6c2.2-4.4 6.2-7.8 11.1-9a39.9 39.9 0 00-3.4 9h-7.7zm-1.4 3.8h8.4a31.8 31.8 0 000 7.6h-8.4a17.2 17.2 0 010-7.6zm12.1 3.8c0 1.3.1 2.6.3 3.8h9.8a28.3 28.3 0 000-7.6h-9.8c-.2 1.2-.3 2.5-.3 3.8zm14-3.8a31.8 31.8 0 010 7.6h7.5a17.2 17.2 0 000-7.6h-7.5zm-4.7 11.4h-8.2a35.3 35.3 0 004 9.6 26.2 26.2 0 002.4-4.4c.6-1.5 1.3-3.2 1.8-5.2zm.8 8.7a40.4 40.4 0 003.2-8.7h6.8c-2 4.1-5.6 7.3-10 8.7zm3.2-24a38.7 38.7 0 00-3.2-8.6c4.4 1.4 8 4.6 10 8.7h-6.8zm-8.1-9.5a27 27 0 012.3 4.4c.6 1.5 1.3 3.2 1.8 5.2h-8.2a35.3 35.3 0 014-9.6zm-15.9 24.8h7.7a38.7 38.7 0 003.4 9c-4.9-1.2-8.9-4.6-11.1-9z" fill="#108060"/><path d="M110.8 123h4l3.1-12.4 2.8 12.4h4.1l5-19h-4l-3 13.1-3-13.1h-3.4l-3.2 13.1-3-13.1H106l4.8 19zm25.1 0h4.1l3-12.4 2.8 12.4h4.2l4.9-19h-4l-3 13.1-3-13.1h-3.4l-3.2 13.1-2.9-13.1h-4.3l4.8 19zm25.2 0h4l3.1-12.4L171 123h4.1l4.9-19h-3.9l-3 13.1-3-13.1h-3.4l-3.2 13.1-3-13.1h-4.2l4.8 19z" fill="#42474C"/><defs><filter id="filter0_d" x="29" y="49" width="171" height="132" filterUnits="userSpaceOnUse" color-interpolation-filters="sRGB"><feFlood flood-opacity="0" result="BackgroundImageFix"/><feColorMatrix in="SourceAlpha" values="0 0 0 0 0 0 0 0 0 0 0 0 0 0 0 0 0 0 127 0"/><feOffset dy="2"/><feGaussianBlur stdDeviation="5"/><feColorMatrix values="0 0 0 0 0 0 0 0 0 0 0 0 0 0 0 0 0 0 0.3 0"/><feBlend in2="BackgroundImageFix" result="effect1_dropShadow"/><feBlend in="SourceGraphic" in2="effect1_dropShadow" result="shape"/></filter></defs></svg>